<?xml version="1.0" encoding="utf-8"?>
<!-- Generator: Adobe Illustrator 25.4.1, SVG Export Plug-In . SVG Version: 6.00 Build 0)  -->
<svg version="1.1" id="Layer_1" xmlns="http://www.w3.org/2000/svg" xmlns:xlink="http://www.w3.org/1999/xlink" x="0px" y="0px"
	 viewBox="0 0 11.45 12.55" style="enable-background:new 0 0 11.45 12.55;" xml:space="preserve">
<style type="text/css">
	.st0{fill:#333333;}
	.st1{fill:#212529;}
	.st2{fill:#4D4D4D;}
	.st3{fill:#0D6EFD;}
</style>
<g>
	<path class="st0" d="M2.62,8.49L2.62,8.49l0-0.02C2.62,8.48,2.62,8.48,2.62,8.49z"/>
	<g>
		<path class="st1" d="M11.45,6.83H10.6c0-0.66-0.13-1.3-0.38-1.9c-0.25-0.58-0.6-1.1-1.04-1.55C8.72,2.93,8.2,2.58,7.62,2.34
			c-0.6-0.25-1.24-0.38-1.9-0.38V1.1c0.77,0,1.52,0.15,2.23,0.45c0.68,0.29,1.29,0.7,1.82,1.23C10.3,3.3,10.71,3.91,11,4.6
			C11.3,5.3,11.45,6.05,11.45,6.83z"/>
	</g>
	<rect x="1.83" y="1.69" class="st1" width="0.51" height="0.63"/>
	<path class="st2" d="M2.35,1.99H1.81c-0.04,0-0.07-0.03-0.07-0.07v0c0-0.04,0.03-0.07,0.07-0.07h0.54c0.04,0,0.07,0.03,0.07,0.07v0
		C2.41,1.96,2.39,1.99,2.35,1.99z"/>
	<path class="st2" d="M2.35,2.16H1.81c-0.04,0-0.07-0.03-0.07-0.07l0,0c0-0.04,0.03-0.07,0.07-0.07h0.54c0.04,0,0.07,0.03,0.07,0.07
		l0,0C2.41,2.13,2.39,2.16,2.35,2.16z"/>
	<path class="st2" d="M2.35,2.32H1.81c-0.04,0-0.07-0.03-0.07-0.07l0,0c0-0.04,0.03-0.07,0.07-0.07h0.54c0.04,0,0.07,0.03,0.07,0.07
		l0,0C2.41,2.29,2.39,2.32,2.35,2.32z"/>
	<g>
		<g>
			<rect x="3.72" y="5.96" class="st1" width="4.01" height="0.44"/>
		</g>
		<circle class="st1" cx="7.95" cy="6.18" r="0.47"/>
		<circle class="st1" cx="3.51" cy="6.18" r="0.47"/>
	</g>
	<g>
		<g>
			<rect x="3.72" y="7.27" class="st1" width="4.01" height="0.44"/>
		</g>
		<circle class="st1" cx="7.95" cy="7.49" r="0.47"/>
		<circle class="st1" cx="3.51" cy="7.49" r="0.47"/>
	</g>
	<polygon class="st1" points="0.85,6.83 0.85,1.15 0,1.15 0,6.83 0,6.83 0.85,6.83 	"/>
	<path class="st1" d="M2.58,3.68c-0.84,0.84-1.3,1.96-1.3,3.14c0,1.19,0.46,2.3,1.3,3.14c0.84,0.84,1.96,1.3,3.14,1.3v-0.85
		c-1.98,0-3.59-1.61-3.59-3.59c0-0.99,0.41-1.9,1.06-2.55L2.58,3.68C2.59,3.68,2.58,3.68,2.58,3.68z"/>
	<g>
		<path class="st3" d="M2.08,1.83L2.08,1.83c-0.35,0-0.63-0.28-0.63-0.63V0.85h1.26v0.35C2.71,1.54,2.43,1.83,2.08,1.83z"/>
	</g>
	<g>
		<g>
			<g>
				<path class="st3" d="M1.81,0.61c-0.03,0-0.06-0.02-0.06-0.04V0.04C1.75,0.02,1.78,0,1.81,0c0.03,0,0.06,0.02,0.06,0.04v0.54
					C1.87,0.6,1.84,0.61,1.81,0.61z"/>
			</g>
		</g>
		<g>
			<g>
				<path class="st3" d="M2.35,0.62c-0.03,0-0.06-0.02-0.06-0.04V0.04C2.29,0.02,2.32,0,2.35,0s0.06,0.02,0.06,0.04v0.54
					C2.41,0.6,2.38,0.62,2.35,0.62z"/>
			</g>
		</g>
	</g>
	<g>
		<g>
			<g>
				<g>
					<rect x="3.65" y="1.24" class="st3" width="1.31" height="0.14"/>
				</g>
			</g>
			<g>
				<circle class="st3" cx="5.03" cy="1.31" r="0.15"/>
			</g>
			<g>
				<circle class="st3" cx="3.58" cy="1.31" r="0.15"/>
			</g>
		</g>
		<g>
			<g>
				<g>
					<rect x="3.65" y="1.66" class="st3" width="1.31" height="0.14"/>
				</g>
			</g>
			<g>
				<circle class="st3" cx="5.03" cy="1.73" r="0.15"/>
			</g>
			<g>
				<circle class="st3" cx="3.58" cy="1.73" r="0.15"/>
			</g>
		</g>
	</g>
	<g>
		<path class="st3" d="M2.28,10.27C1.83,9.82,1.48,9.3,1.24,8.72c-0.25-0.6-0.38-1.24-0.38-1.89H0c0,0,0,0.01,0,0.01
			c0,0.77,0.15,1.51,0.45,2.21c0.29,0.68,0.7,1.29,1.23,1.82C2.2,11.4,2.81,11.81,3.5,12.1c0.71,0.3,1.46,0.45,2.23,0.45V11.7
			c-0.66,0-1.3-0.13-1.9-0.38C3.25,11.07,2.73,10.72,2.28,10.27z"/>
	</g>
	<g>
		<path class="st3" d="M8.87,3.68c-0.84-0.84-1.96-1.3-3.14-1.3c-1.18,0-2.3,0.46-3.14,1.29l0.6,0.6c0.65-0.65,1.54-1.05,2.53-1.05
			c1.98,0,3.59,1.61,3.59,3.59h0.85C10.17,5.64,9.71,4.52,8.87,3.68z"/>
	</g>
	<path class="st1" d="M2.8,0.81H1.35c-0.04,0-0.08-0.03-0.08-0.08v0c0-0.04,0.03-0.08,0.08-0.08H2.8c0.04,0,0.08,0.03,0.08,0.08v0
		C2.87,0.77,2.84,0.81,2.8,0.81z"/>
</g>
</svg>
