<?xml version="1.0" encoding="utf-8"?>
<!-- Generator: Adobe Illustrator 25.4.1, SVG Export Plug-In . SVG Version: 6.00 Build 0)  -->
<svg version="1.1" id="Layer_1" xmlns="http://www.w3.org/2000/svg" xmlns:xlink="http://www.w3.org/1999/xlink" x="0px" y="0px"
	 viewBox="0 0 986.9 744.13" style="enable-background:new 0 0 986.9 744.13;" xml:space="preserve">
<style type="text/css">
	.st0{fill:#333333;}
	.st1{fill:#212529;}
	.st2{fill:#4D4D4D;}
	.st3{fill:#0D6EFD;}
</style>
<g>
	<path class="st0" d="M155.14,503.34h-0.01v-1.01C155.13,502.66,155.13,503,155.14,503.34z"/>
	<g>
		<path class="st1" d="M678.87,404.69h-50.59c0-38.97-7.64-76.81-22.72-112.45c-14.55-34.4-35.37-65.29-61.88-91.8
			c-26.51-26.51-57.4-47.33-91.8-61.88c-35.64-15.08-73.48-22.72-112.45-22.72V65.26c45.78,0,90.24,8.99,132.16,26.72
			c40.43,17.1,76.72,41.56,107.86,72.7c31.14,31.14,55.6,67.43,72.7,107.86C669.88,314.45,678.87,358.91,678.87,404.69z"/>
	</g>
	<g>
		<path class="st1" d="M425.09,598.52c0,1.36-0.06,2.5-0.17,3.43c-0.11,0.93-0.28,1.7-0.51,2.31c-0.23,0.61-0.51,1.05-0.85,1.33
			s-0.74,0.41-1.19,0.41h-40.31c-1.5,0-2.75-0.44-3.77-1.33s-1.53-2.32-1.53-4.32v-79.87c0-0.45,0.15-0.86,0.44-1.22
			c0.29-0.36,0.78-0.66,1.46-0.88c0.68-0.23,1.6-0.41,2.75-0.54c1.16-0.14,2.59-0.2,4.32-0.2c1.77,0,3.22,0.07,4.35,0.2
			c1.13,0.14,2.04,0.32,2.72,0.54c0.68,0.23,1.17,0.52,1.46,0.88c0.29,0.36,0.44,0.77,0.44,1.22v70.76h27.67
			c0.45,0,0.85,0.13,1.19,0.37c0.34,0.25,0.62,0.66,0.85,1.22c0.23,0.57,0.4,1.31,0.51,2.24
			C425.03,596.02,425.09,597.16,425.09,598.52z"/>
		<path class="st1" d="M453.02,522.53c0,3.45-0.7,5.82-2.11,7.14c-1.41,1.31-4.01,1.97-7.82,1.97c-3.85,0-6.45-0.63-7.78-1.9
			c-1.34-1.27-2.01-3.56-2.01-6.87c0-3.44,0.69-5.83,2.07-7.17c1.38-1.34,4-2.01,7.85-2.01c3.81,0,6.39,0.65,7.75,1.94
			C452.35,516.92,453.02,519.22,453.02,522.53z M451.73,603.69c0,0.45-0.14,0.85-0.41,1.19c-0.27,0.34-0.74,0.62-1.39,0.85
			c-0.66,0.23-1.53,0.4-2.62,0.51c-1.09,0.11-2.47,0.17-4.15,0.17c-1.68,0-3.06-0.06-4.15-0.17c-1.09-0.11-1.96-0.28-2.62-0.51
			c-0.66-0.23-1.12-0.51-1.39-0.85c-0.27-0.34-0.41-0.74-0.41-1.19v-60.5c0-0.45,0.14-0.85,0.41-1.19c0.27-0.34,0.74-0.63,1.39-0.88
			c0.66-0.25,1.53-0.44,2.62-0.58c1.09-0.14,2.47-0.2,4.15-0.2c1.68,0,3.06,0.07,4.15,0.2c1.09,0.14,1.96,0.33,2.62,0.58
			c0.66,0.25,1.12,0.54,1.39,0.88c0.27,0.34,0.41,0.74,0.41,1.19V603.69z"/>
		<path class="st1" d="M529.84,572.56c0,5.39-0.59,10.24-1.77,14.55c-1.18,4.31-2.88,7.98-5.1,11.01c-2.22,3.04-4.95,5.37-8.19,7
			c-3.24,1.63-6.92,2.45-11.05,2.45c-2.04,0-3.94-0.19-5.71-0.58c-1.77-0.39-3.46-1.01-5.06-1.87c-1.61-0.86-3.19-1.95-4.76-3.26
			c-1.56-1.31-3.16-2.9-4.79-4.76v6.59c0,0.5-0.13,0.92-0.37,1.26c-0.25,0.34-0.66,0.62-1.22,0.85c-0.57,0.23-1.33,0.38-2.28,0.48
			c-0.95,0.09-2.11,0.14-3.47,0.14c-1.41,0-2.57-0.05-3.5-0.14c-0.93-0.09-1.68-0.25-2.24-0.48c-0.57-0.23-0.96-0.51-1.19-0.85
			c-0.23-0.34-0.34-0.76-0.34-1.26V514.3c0-0.45,0.14-0.86,0.41-1.22c0.27-0.36,0.74-0.67,1.39-0.92c0.66-0.25,1.53-0.44,2.62-0.58
			s2.47-0.2,4.15-0.2c1.68,0,3.06,0.07,4.15,0.2c1.09,0.14,1.96,0.33,2.62,0.58c0.66,0.25,1.12,0.56,1.39,0.92
			c0.27,0.36,0.41,0.77,0.41,1.22v33.51c1.54-1.54,3.08-2.85,4.62-3.94c1.54-1.09,3.08-1.98,4.62-2.68c1.54-0.7,3.13-1.21,4.76-1.53
			c1.63-0.32,3.35-0.48,5.17-0.48c4.49,0,8.29,0.9,11.42,2.68c3.13,1.79,5.68,4.2,7.65,7.24c1.97,3.04,3.41,6.58,4.32,10.64
			C529.38,563.8,529.84,568.07,529.84,572.56z M512.09,573.78c0-2.58-0.19-5.07-0.58-7.48c-0.39-2.4-1.05-4.53-2.01-6.39
			c-0.95-1.86-2.19-3.34-3.7-4.45c-1.52-1.11-3.43-1.67-5.74-1.67c-1.13,0-2.24,0.16-3.33,0.48c-1.09,0.32-2.21,0.86-3.36,1.63
			c-1.16,0.77-2.35,1.77-3.57,2.99s-2.52,2.74-3.87,4.55v20.12c2.4,3.08,4.7,5.43,6.9,7.04c2.2,1.61,4.5,2.41,6.9,2.41
			c2.22,0,4.1-0.57,5.64-1.7c1.54-1.13,2.82-2.6,3.84-4.42c1.02-1.81,1.76-3.87,2.21-6.19C511.87,578.4,512.09,576.09,512.09,573.78
			z"/>
		<path class="st1" d="M599.51,571.6c0,2.09-0.46,3.63-1.39,4.62c-0.93,1-2.21,1.5-3.84,1.5h-36.91c0,2.58,0.31,4.93,0.92,7.04
			c0.61,2.11,1.59,3.9,2.92,5.37c1.34,1.47,3.06,2.6,5.17,3.36c2.11,0.77,4.63,1.16,7.58,1.16c2.99,0,5.62-0.21,7.89-0.65
			c2.26-0.43,4.23-0.91,5.88-1.43c1.65-0.52,3.02-1,4.11-1.43c1.09-0.43,1.97-0.65,2.65-0.65c0.41,0,0.75,0.08,1.02,0.24
			c0.27,0.16,0.5,0.44,0.68,0.85c0.18,0.41,0.31,0.99,0.37,1.73c0.07,0.75,0.1,1.69,0.1,2.82c0,1-0.02,1.85-0.07,2.55
			c-0.05,0.7-0.11,1.3-0.2,1.8c-0.09,0.5-0.23,0.92-0.41,1.26c-0.18,0.34-0.42,0.67-0.71,0.99c-0.29,0.32-1.1,0.75-2.41,1.29
			c-1.31,0.54-2.99,1.08-5.03,1.6s-4.37,0.97-7,1.36c-2.63,0.38-5.44,0.58-8.43,0.58c-5.39,0-10.12-0.68-14.17-2.04
			c-4.06-1.36-7.44-3.42-10.16-6.19c-2.72-2.76-4.75-6.25-6.08-10.47c-1.34-4.21-2.01-9.15-2.01-14.82c0-5.39,0.7-10.25,2.11-14.58
			c1.4-4.33,3.44-8,6.12-11.01c2.67-3.01,5.92-5.31,9.75-6.9c3.83-1.59,8.14-2.38,12.95-2.38c5.08,0,9.41,0.75,13.02,2.24
			c3.6,1.5,6.56,3.57,8.87,6.22c2.31,2.65,4.01,5.79,5.1,9.41c1.09,3.63,1.63,7.57,1.63,11.83V571.6z M582.92,566.71
			c0.14-4.8-0.83-8.58-2.89-11.32c-2.06-2.74-5.25-4.11-9.55-4.11c-2.18,0-4.07,0.41-5.68,1.22c-1.61,0.82-2.95,1.92-4.01,3.3
			c-1.07,1.38-1.88,3.01-2.45,4.89c-0.57,1.88-0.9,3.89-0.99,6.02H582.92z"/>
		<path class="st1" d="M652.53,548.7c0,1.63-0.05,2.97-0.14,4.01c-0.09,1.04-0.23,1.86-0.41,2.45c-0.18,0.59-0.42,1-0.71,1.22
			c-0.3,0.23-0.67,0.34-1.12,0.34c-0.36,0-0.77-0.08-1.22-0.24c-0.45-0.16-0.96-0.33-1.53-0.51c-0.57-0.18-1.19-0.35-1.87-0.51
			c-0.68-0.16-1.43-0.24-2.24-0.24c-0.95,0-1.9,0.19-2.85,0.58c-0.95,0.39-1.94,0.99-2.96,1.8c-1.02,0.82-2.09,1.9-3.19,3.26
			c-1.11,1.36-2.3,3.04-3.57,5.03v37.79c0,0.45-0.14,0.85-0.41,1.19c-0.27,0.34-0.74,0.62-1.39,0.85c-0.66,0.23-1.53,0.4-2.62,0.51
			c-1.09,0.11-2.47,0.17-4.15,0.17c-1.68,0-3.06-0.06-4.15-0.17c-1.09-0.11-1.96-0.28-2.62-0.51c-0.66-0.23-1.12-0.51-1.39-0.85
			c-0.27-0.34-0.41-0.74-0.41-1.19v-60.63c0-0.45,0.11-0.85,0.34-1.19c0.23-0.34,0.63-0.62,1.22-0.85c0.59-0.23,1.35-0.4,2.28-0.51
			c0.93-0.11,2.09-0.17,3.5-0.17c1.45,0,2.65,0.06,3.6,0.17c0.95,0.11,1.69,0.28,2.21,0.51c0.52,0.23,0.89,0.51,1.12,0.85
			c0.23,0.34,0.34,0.74,0.34,1.19v7.55c1.59-2.26,3.08-4.13,4.49-5.61c1.4-1.47,2.74-2.64,4.01-3.5c1.27-0.86,2.54-1.46,3.81-1.8
			c1.27-0.34,2.54-0.51,3.81-0.51c0.59,0,1.22,0.03,1.9,0.1c0.68,0.07,1.38,0.18,2.11,0.34c0.72,0.16,1.36,0.34,1.9,0.54
			c0.54,0.2,0.94,0.42,1.19,0.65c0.25,0.23,0.43,0.48,0.54,0.75c0.11,0.27,0.21,0.65,0.31,1.12c0.09,0.48,0.16,1.19,0.2,2.14
			C652.51,545.77,652.53,547.07,652.53,548.7z"/>
		<path class="st1" d="M698.96,597.71c0,1.99-0.13,3.52-0.37,4.59c-0.25,1.07-0.58,1.81-0.99,2.24c-0.41,0.43-1.01,0.82-1.8,1.16
			c-0.79,0.34-1.72,0.63-2.79,0.88c-1.07,0.25-2.22,0.44-3.47,0.58c-1.25,0.14-2.5,0.2-3.77,0.2c-3.4,0-6.34-0.43-8.84-1.29
			c-2.49-0.86-4.55-2.19-6.19-3.98c-1.63-1.79-2.83-4.04-3.6-6.76c-0.77-2.72-1.16-5.94-1.16-9.65v-31.06h-7.27
			c-0.86,0-1.52-0.53-1.97-1.6c-0.45-1.06-0.68-2.84-0.68-5.34c0-1.31,0.06-2.42,0.17-3.33c0.11-0.91,0.28-1.62,0.51-2.14
			c0.23-0.52,0.51-0.89,0.85-1.12c0.34-0.23,0.74-0.34,1.19-0.34h7.21v-13.53c0-0.45,0.12-0.86,0.37-1.22
			c0.25-0.36,0.7-0.67,1.36-0.92c0.66-0.25,1.54-0.43,2.65-0.54c1.11-0.11,2.48-0.17,4.11-0.17c1.68,0,3.07,0.06,4.18,0.17
			c1.11,0.11,1.98,0.29,2.62,0.54c0.63,0.25,1.09,0.56,1.36,0.92c0.27,0.36,0.41,0.77,0.41,1.22v13.53h13.19
			c0.45,0,0.85,0.11,1.19,0.34c0.34,0.23,0.62,0.6,0.85,1.12c0.23,0.52,0.4,1.24,0.51,2.14c0.11,0.91,0.17,2.02,0.17,3.33
			c0,2.49-0.23,4.27-0.68,5.34c-0.45,1.07-1.11,1.6-1.97,1.6h-13.26v28.48c0,3.31,0.52,5.79,1.56,7.44c1.04,1.65,2.9,2.48,5.57,2.48
			c0.91,0,1.72-0.08,2.45-0.24c0.72-0.16,1.37-0.34,1.94-0.54c0.57-0.2,1.04-0.38,1.43-0.54c0.38-0.16,0.74-0.24,1.05-0.24
			c0.27,0,0.53,0.08,0.78,0.24c0.25,0.16,0.44,0.48,0.58,0.95c0.14,0.48,0.26,1.12,0.37,1.94
			C698.9,595.4,698.96,596.44,698.96,597.71z"/>
		<path class="st1" d="M746.47,606l-7.34,21.48c-0.41,1.13-1.52,1.95-3.33,2.45c-1.81,0.5-4.46,0.75-7.95,0.75
			c-1.81,0-3.26-0.08-4.35-0.24c-1.09-0.16-1.9-0.42-2.45-0.78c-0.54-0.36-0.84-0.82-0.88-1.36c-0.05-0.54,0.09-1.2,0.41-1.97
			l8.09-20.32c-0.59-0.27-1.12-0.69-1.6-1.26c-0.48-0.57-0.83-1.17-1.05-1.8l-20.87-55.74c-0.59-1.59-0.88-2.8-0.88-3.64
			c0-0.84,0.27-1.5,0.82-1.97c0.54-0.48,1.46-0.8,2.75-0.99c1.29-0.18,3-0.27,5.13-0.27c1.95,0,3.49,0.03,4.62,0.1
			c1.13,0.07,2.02,0.24,2.65,0.51c0.63,0.27,1.11,0.69,1.43,1.26c0.32,0.57,0.63,1.37,0.95,2.41l14.27,40.58h0.2l13.05-41.4
			c0.27-1.18,0.62-1.96,1.05-2.35c0.43-0.38,1.14-0.67,2.14-0.85c1-0.18,2.74-0.27,5.23-0.27c1.95,0,3.57,0.09,4.86,0.27
			c1.29,0.18,2.24,0.52,2.85,1.02c0.61,0.5,0.92,1.17,0.92,2.01c0,0.84-0.18,1.82-0.54,2.96L746.47,606z"/>
	</g>
	<rect x="108.34" y="100.16" class="st1" width="30.08" height="37.57"/>
	<path class="st2" d="M140.77,118.09h-34.78c-1.33,0-2.4-1.08-2.4-2.4v-2.97c0-1.33,1.08-2.4,2.4-2.4h34.78c1.33,0,2.4,1.08,2.4,2.4
		v2.97C143.18,117.01,142.1,118.09,140.77,118.09z"/>
	<path class="st2" d="M140.77,127.91h-34.78c-1.33,0-2.4-1.08-2.4-2.4v-2.97c0-1.33,1.08-2.4,2.4-2.4h34.78c1.33,0,2.4,1.08,2.4,2.4
		v2.97C143.18,126.83,142.1,127.91,140.77,127.91z"/>
	<path class="st2" d="M140.77,137.73h-34.78c-1.33,0-2.4-1.08-2.4-2.4v-2.97c0-1.33,1.08-2.4,2.4-2.4h34.78c1.33,0,2.4,1.08,2.4,2.4
		v2.97C143.18,136.65,142.1,137.73,140.77,137.73z"/>
	<g>
		<g>
			<rect x="220.86" y="353.5" class="st1" width="237.84" height="25.85"/>
		</g>
		<circle class="st1" cx="471.62" cy="366.42" r="27.79"/>
		<circle class="st1" cx="207.93" cy="366.42" r="27.79"/>
	</g>
	<g>
		<g>
			<rect x="220.86" y="431.05" class="st1" width="237.84" height="25.85"/>
		</g>
		<circle class="st1" cx="471.62" cy="443.98" r="27.79"/>
		<circle class="st1" cx="207.93" cy="443.98" r="27.79"/>
	</g>
	<path class="st1" d="M50.59,404.69V68.29H0v336.4c0,0.09,0,0.19,0,0.29h50.59C50.59,404.88,50.59,404.79,50.59,404.69z"/>
	<path class="st1" d="M153.07,218.33c-49.78,49.78-77.19,115.96-77.19,186.36c0,70.4,27.41,136.58,77.19,186.36
		c49.78,49.78,115.96,77.19,186.36,77.19v-50.59c-117.43,0-212.97-95.54-212.97-212.97c0-58.95,24.08-112.37,62.9-150.97
		l-35.84-35.84C153.38,218.03,153.22,218.18,153.07,218.33z"/>
	<g>
		<g>
			<path class="st3" d="M428.89,735.56c0,1.31-0.06,2.41-0.17,3.3c-0.11,0.88-0.28,1.6-0.51,2.14c-0.23,0.54-0.51,0.94-0.85,1.19
				c-0.34,0.25-0.71,0.37-1.12,0.37h-44.18c-1.5,0-2.75-0.44-3.77-1.33s-1.53-2.32-1.53-4.32v-76.68c0-1.99,0.51-3.43,1.53-4.32
				s2.28-1.33,3.77-1.33h43.91c0.41,0,0.77,0.11,1.09,0.34c0.32,0.23,0.59,0.62,0.82,1.19c0.23,0.57,0.4,1.29,0.51,2.18
				c0.11,0.88,0.17,2.01,0.17,3.36c0,1.27-0.06,2.35-0.17,3.23c-0.11,0.88-0.28,1.6-0.51,2.14c-0.23,0.54-0.5,0.94-0.82,1.19
				c-0.32,0.25-0.68,0.37-1.09,0.37h-31.4v21.48h26.58c0.41,0,0.78,0.13,1.12,0.37c0.34,0.25,0.62,0.63,0.85,1.16
				c0.23,0.52,0.4,1.22,0.51,2.11c0.11,0.88,0.17,1.96,0.17,3.23c0,1.31-0.06,2.4-0.17,3.26c-0.11,0.86-0.28,1.55-0.51,2.07
				c-0.23,0.52-0.51,0.9-0.85,1.12c-0.34,0.23-0.71,0.34-1.12,0.34h-26.58v24.81h31.68c0.41,0,0.78,0.13,1.12,0.37
				c0.34,0.25,0.62,0.65,0.85,1.19c0.23,0.54,0.4,1.26,0.51,2.14C428.84,733.15,428.89,734.25,428.89,735.56z"/>
		</g>
		<g>
			<path class="st3" d="M460.77,740.25c0,0.45-0.14,0.85-0.41,1.19c-0.27,0.34-0.74,0.62-1.39,0.85c-0.66,0.23-1.53,0.4-2.62,0.51
				c-1.09,0.11-2.47,0.17-4.15,0.17c-1.68,0-3.06-0.06-4.15-0.17c-1.09-0.11-1.96-0.28-2.62-0.51c-0.66-0.23-1.12-0.51-1.39-0.85
				c-0.27-0.34-0.41-0.74-0.41-1.19v-89.39c0-0.45,0.14-0.86,0.41-1.22c0.27-0.36,0.74-0.67,1.39-0.92
				c0.66-0.25,1.53-0.44,2.62-0.58c1.09-0.14,2.47-0.2,4.15-0.2c1.68,0,3.06,0.07,4.15,0.2c1.09,0.14,1.96,0.33,2.62,0.58
				c0.66,0.25,1.12,0.56,1.39,0.92c0.27,0.36,0.41,0.77,0.41,1.22V740.25z"/>
		</g>
		<g>
			<path class="st3" d="M533.85,708.17c0,2.09-0.46,3.63-1.39,4.62c-0.93,1-2.21,1.5-3.84,1.5H491.7c0,2.58,0.31,4.93,0.92,7.04
				c0.61,2.11,1.59,3.9,2.92,5.37c1.34,1.47,3.06,2.6,5.17,3.36c2.11,0.77,4.63,1.16,7.58,1.16c2.99,0,5.62-0.21,7.89-0.65
				c2.26-0.43,4.23-0.91,5.88-1.43c1.65-0.52,3.02-1,4.11-1.43c1.09-0.43,1.97-0.65,2.65-0.65c0.41,0,0.75,0.08,1.02,0.24
				c0.27,0.16,0.5,0.44,0.68,0.85c0.18,0.41,0.31,0.99,0.37,1.73c0.07,0.75,0.1,1.69,0.1,2.82c0,1-0.02,1.85-0.07,2.55
				c-0.05,0.7-0.11,1.3-0.2,1.8c-0.09,0.5-0.23,0.92-0.41,1.26c-0.18,0.34-0.42,0.67-0.71,0.99c-0.3,0.32-1.1,0.75-2.41,1.29
				c-1.31,0.54-2.99,1.08-5.03,1.6s-4.37,0.97-7,1.36c-2.63,0.38-5.44,0.58-8.43,0.58c-5.39,0-10.12-0.68-14.17-2.04
				c-4.06-1.36-7.44-3.42-10.16-6.19c-2.72-2.76-4.75-6.25-6.08-10.47c-1.34-4.21-2.01-9.15-2.01-14.82c0-5.39,0.7-10.25,2.11-14.58
				c1.4-4.33,3.44-8,6.12-11.01c2.67-3.01,5.92-5.31,9.75-6.9c3.83-1.59,8.14-2.38,12.95-2.38c5.07,0,9.41,0.75,13.02,2.24
				c3.6,1.5,6.56,3.57,8.87,6.22c2.31,2.65,4.01,5.79,5.1,9.41c1.09,3.63,1.63,7.57,1.63,11.83V708.17z M517.26,703.28
				c0.14-4.8-0.83-8.58-2.89-11.32c-2.06-2.74-5.25-4.11-9.55-4.11c-2.18,0-4.07,0.41-5.68,1.22c-1.61,0.82-2.95,1.92-4.01,3.3
				c-1.07,1.38-1.88,3.01-2.45,4.89c-0.57,1.88-0.9,3.89-0.99,6.02H517.26z"/>
		</g>
		<g>
			<path class="st3" d="M593.8,730.6c0,1.18-0.03,2.16-0.1,2.96c-0.07,0.79-0.16,1.46-0.27,2.01c-0.11,0.54-0.25,0.99-0.41,1.33
				c-0.16,0.34-0.51,0.77-1.05,1.29c-0.54,0.52-1.47,1.16-2.79,1.9c-1.31,0.75-2.81,1.42-4.49,2.01c-1.68,0.59-3.5,1.06-5.47,1.43
				c-1.97,0.36-4,0.54-6.08,0.54c-4.67,0-8.8-0.73-12.41-2.18s-6.63-3.59-9.07-6.42c-2.45-2.83-4.29-6.29-5.54-10.37
				c-1.25-4.08-1.87-8.75-1.87-14c0-6.07,0.76-11.32,2.28-15.74c1.52-4.42,3.64-8.08,6.36-10.98c2.72-2.9,5.94-5.05,9.65-6.46
				c3.72-1.4,7.79-2.11,12.24-2.11c1.81,0,3.59,0.16,5.34,0.48c1.74,0.32,3.38,0.75,4.89,1.29c1.52,0.54,2.88,1.16,4.08,1.84
				c1.2,0.68,2.05,1.27,2.55,1.77c0.5,0.5,0.85,0.92,1.05,1.26c0.2,0.34,0.36,0.78,0.48,1.33c0.11,0.54,0.2,1.21,0.27,2.01
				c0.07,0.79,0.1,1.76,0.1,2.89c0,2.63-0.23,4.48-0.68,5.54c-0.45,1.07-1.04,1.6-1.77,1.6c-0.77,0-1.59-0.32-2.45-0.95
				c-0.86-0.63-1.88-1.34-3.06-2.11c-1.18-0.77-2.58-1.47-4.21-2.11c-1.63-0.63-3.58-0.95-5.85-0.95c-4.44,0-7.84,1.71-10.2,5.13
				c-2.36,3.42-3.53,8.44-3.53,15.06c0,3.26,0.29,6.14,0.88,8.63c0.59,2.49,1.46,4.58,2.62,6.25c1.16,1.68,2.6,2.94,4.35,3.77
				c1.74,0.84,3.77,1.26,6.08,1.26c2.36,0,4.38-0.35,6.08-1.05c1.7-0.7,3.18-1.48,4.45-2.35c1.27-0.86,2.33-1.64,3.19-2.35
				c0.86-0.7,1.59-1.05,2.18-1.05c0.41,0,0.75,0.11,1.02,0.34c0.27,0.23,0.49,0.65,0.65,1.26c0.16,0.61,0.28,1.39,0.37,2.35
				C593.75,727.88,593.8,729.11,593.8,730.6z"/>
		</g>
		<g>
			<path class="st3" d="M642.06,734.27c0,1.99-0.13,3.52-0.37,4.59c-0.25,1.07-0.58,1.81-0.99,2.24c-0.41,0.43-1.01,0.82-1.8,1.16
				c-0.79,0.34-1.72,0.63-2.79,0.88c-1.07,0.25-2.22,0.44-3.47,0.58c-1.25,0.14-2.5,0.2-3.77,0.2c-3.4,0-6.34-0.43-8.84-1.29
				c-2.49-0.86-4.55-2.19-6.19-3.98c-1.63-1.79-2.83-4.04-3.6-6.76c-0.77-2.72-1.16-5.94-1.16-9.65v-31.06h-7.27
				c-0.86,0-1.52-0.53-1.97-1.6c-0.45-1.06-0.68-2.84-0.68-5.34c0-1.31,0.06-2.42,0.17-3.33c0.11-0.91,0.28-1.62,0.51-2.14
				c0.23-0.52,0.51-0.89,0.85-1.12c0.34-0.23,0.74-0.34,1.19-0.34h7.21v-13.53c0-0.45,0.12-0.86,0.37-1.22
				c0.25-0.36,0.7-0.67,1.36-0.92c0.66-0.25,1.54-0.43,2.65-0.54c1.11-0.11,2.48-0.17,4.11-0.17c1.68,0,3.07,0.06,4.18,0.17
				c1.11,0.11,1.98,0.3,2.62,0.54c0.63,0.25,1.09,0.56,1.36,0.92c0.27,0.36,0.41,0.77,0.41,1.22v13.53h13.19
				c0.45,0,0.85,0.11,1.19,0.34c0.34,0.23,0.62,0.6,0.85,1.12c0.23,0.52,0.4,1.24,0.51,2.14c0.11,0.91,0.17,2.02,0.17,3.33
				c0,2.49-0.23,4.27-0.68,5.34c-0.45,1.07-1.11,1.6-1.97,1.6h-13.26v28.48c0,3.31,0.52,5.79,1.56,7.44
				c1.04,1.65,2.9,2.48,5.57,2.48c0.91,0,1.72-0.08,2.45-0.24c0.72-0.16,1.37-0.34,1.94-0.54c0.57-0.2,1.04-0.38,1.43-0.54
				c0.38-0.16,0.74-0.24,1.05-0.24c0.27,0,0.53,0.08,0.78,0.24c0.25,0.16,0.44,0.48,0.58,0.95c0.14,0.48,0.26,1.12,0.37,1.94
				C642.01,731.96,642.06,733,642.06,734.27z"/>
		</g>
		<g>
			<path class="st3" d="M693.38,685.26c0,1.63-0.05,2.97-0.14,4.01c-0.09,1.04-0.23,1.86-0.41,2.45c-0.18,0.59-0.42,1-0.71,1.22
				c-0.29,0.23-0.67,0.34-1.12,0.34c-0.36,0-0.77-0.08-1.22-0.24c-0.45-0.16-0.96-0.33-1.53-0.51c-0.57-0.18-1.19-0.35-1.87-0.51
				c-0.68-0.16-1.43-0.24-2.24-0.24c-0.95,0-1.9,0.19-2.85,0.58c-0.95,0.39-1.94,0.99-2.96,1.8c-1.02,0.82-2.09,1.9-3.19,3.26
				c-1.11,1.36-2.3,3.04-3.57,5.03v37.79c0,0.45-0.14,0.85-0.41,1.19c-0.27,0.34-0.74,0.62-1.39,0.85c-0.66,0.23-1.53,0.4-2.62,0.51
				c-1.09,0.11-2.47,0.17-4.15,0.17c-1.68,0-3.06-0.06-4.15-0.17c-1.09-0.11-1.96-0.28-2.62-0.51c-0.66-0.23-1.12-0.51-1.39-0.85
				c-0.27-0.34-0.41-0.74-0.41-1.19v-60.63c0-0.45,0.11-0.85,0.34-1.19c0.23-0.34,0.63-0.62,1.22-0.85c0.59-0.23,1.35-0.4,2.28-0.51
				c0.93-0.11,2.09-0.17,3.5-0.17c1.45,0,2.65,0.06,3.6,0.17c0.95,0.11,1.69,0.28,2.21,0.51c0.52,0.23,0.89,0.51,1.12,0.85
				c0.23,0.34,0.34,0.74,0.34,1.19v7.55c1.59-2.26,3.08-4.13,4.49-5.61c1.4-1.47,2.74-2.64,4.01-3.5c1.27-0.86,2.54-1.46,3.81-1.8
				c1.27-0.34,2.54-0.51,3.81-0.51c0.59,0,1.22,0.03,1.9,0.1c0.68,0.07,1.38,0.18,2.11,0.34c0.72,0.16,1.36,0.34,1.9,0.54
				s0.94,0.42,1.19,0.65c0.25,0.23,0.43,0.48,0.54,0.75c0.11,0.27,0.21,0.65,0.31,1.12c0.09,0.48,0.16,1.19,0.2,2.14
				C693.36,682.34,693.38,683.63,693.38,685.26z"/>
		</g>
		<g>
			<path class="st3" d="M763.53,709.33c0,5.17-0.68,9.88-2.04,14.14c-1.36,4.26-3.42,7.93-6.19,11.01
				c-2.77,3.08-6.23,5.46-10.4,7.14c-4.17,1.68-9.04,2.52-14.61,2.52c-5.39,0-10.08-0.75-14.07-2.24c-3.99-1.5-7.3-3.67-9.92-6.53
				c-2.63-2.85-4.58-6.37-5.85-10.54c-1.27-4.17-1.9-8.93-1.9-14.27c0-5.17,0.69-9.89,2.07-14.17c1.38-4.28,3.45-7.95,6.22-11.01
				c2.76-3.06,6.22-5.43,10.37-7.1c4.15-1.68,9.01-2.52,14.58-2.52c5.44,0,10.15,0.74,14.14,2.21c3.99,1.47,7.28,3.64,9.89,6.49
				c2.6,2.85,4.54,6.37,5.81,10.54C762.9,699.15,763.53,703.93,763.53,709.33z M745.93,710.01c0-2.99-0.24-5.74-0.71-8.26
				s-1.28-4.7-2.41-6.56c-1.13-1.86-2.64-3.31-4.52-4.35c-1.88-1.04-4.25-1.56-7.1-1.56c-2.54,0-4.76,0.46-6.66,1.39
				c-1.9,0.93-3.47,2.29-4.69,4.08c-1.22,1.79-2.14,3.94-2.75,6.46c-0.61,2.52-0.92,5.38-0.92,8.6c0,2.99,0.25,5.74,0.75,8.26
				c0.5,2.52,1.3,4.7,2.41,6.56c1.11,1.86,2.62,3.3,4.52,4.32c1.9,1.02,4.26,1.53,7.07,1.53c2.58,0,4.83-0.46,6.73-1.39
				c1.9-0.93,3.47-2.28,4.69-4.04c1.22-1.77,2.13-3.91,2.72-6.42C745.63,716.09,745.93,713.22,745.93,710.01z"/>
		</g>
		<g>
			<path class="st3" d="M834.98,740.25c0,0.45-0.14,0.85-0.41,1.19c-0.27,0.34-0.73,0.62-1.36,0.85c-0.63,0.23-1.51,0.4-2.62,0.51
				c-1.11,0.11-2.48,0.17-4.11,0.17c-1.68,0-3.07-0.06-4.18-0.17c-1.11-0.11-1.98-0.28-2.62-0.51c-0.63-0.23-1.09-0.51-1.36-0.85
				c-0.27-0.34-0.41-0.74-0.41-1.19v-34.6c0-2.94-0.22-5.26-0.65-6.93c-0.43-1.68-1.05-3.11-1.87-4.32
				c-0.82-1.2-1.87-2.13-3.16-2.79c-1.29-0.66-2.8-0.99-4.52-0.99c-2.18,0-4.37,0.79-6.59,2.38c-2.22,1.59-4.53,3.9-6.93,6.93v40.31
				c0,0.45-0.14,0.85-0.41,1.19c-0.27,0.34-0.74,0.62-1.39,0.85c-0.66,0.23-1.53,0.4-2.62,0.51c-1.09,0.11-2.47,0.17-4.15,0.17
				c-1.68,0-3.06-0.06-4.15-0.17c-1.09-0.11-1.96-0.28-2.62-0.51c-0.66-0.23-1.12-0.51-1.39-0.85c-0.27-0.34-0.41-0.74-0.41-1.19
				v-60.63c0-0.45,0.11-0.85,0.34-1.19c0.23-0.34,0.63-0.62,1.22-0.85c0.59-0.23,1.35-0.4,2.28-0.51c0.93-0.11,2.09-0.17,3.5-0.17
				c1.45,0,2.65,0.06,3.6,0.17c0.95,0.11,1.69,0.28,2.21,0.51c0.52,0.23,0.89,0.51,1.12,0.85c0.23,0.34,0.34,0.74,0.34,1.19v7
				c3.35-3.62,6.76-6.34,10.23-8.16c3.47-1.81,7.08-2.72,10.84-2.72c4.12,0,7.6,0.68,10.43,2.04c2.83,1.36,5.12,3.21,6.87,5.54
				c1.74,2.33,3,5.06,3.77,8.19c0.77,3.13,1.16,6.89,1.16,11.28V740.25z"/>
		</g>
		<g>
			<path class="st3" d="M870.19,659.09c0,3.44-0.7,5.82-2.11,7.14c-1.41,1.31-4.01,1.97-7.82,1.97c-3.85,0-6.45-0.63-7.78-1.9
				c-1.34-1.27-2.01-3.56-2.01-6.87c0-3.44,0.69-5.83,2.07-7.17c1.38-1.34,4-2.01,7.85-2.01c3.81,0,6.39,0.65,7.75,1.94
				C869.51,653.48,870.19,655.78,870.19,659.09z M868.9,740.25c0,0.45-0.14,0.85-0.41,1.19c-0.27,0.34-0.74,0.62-1.39,0.85
				c-0.66,0.23-1.53,0.4-2.62,0.51c-1.09,0.11-2.47,0.17-4.15,0.17c-1.68,0-3.06-0.06-4.15-0.17c-1.09-0.11-1.96-0.28-2.62-0.51
				c-0.66-0.23-1.12-0.51-1.39-0.85c-0.27-0.34-0.41-0.74-0.41-1.19v-60.5c0-0.45,0.14-0.85,0.41-1.19
				c0.27-0.34,0.74-0.63,1.39-0.88c0.66-0.25,1.53-0.44,2.62-0.58c1.09-0.14,2.47-0.2,4.15-0.2c1.68,0,3.06,0.07,4.15,0.2
				c1.09,0.14,1.96,0.33,2.62,0.58c0.66,0.25,1.12,0.54,1.39,0.88c0.27,0.34,0.41,0.74,0.41,1.19V740.25z"/>
		</g>
		<g>
			<path class="st3" d="M931.84,730.6c0,1.18-0.03,2.16-0.1,2.96c-0.07,0.79-0.16,1.46-0.27,2.01c-0.11,0.54-0.25,0.99-0.41,1.33
				c-0.16,0.34-0.51,0.77-1.05,1.29c-0.54,0.52-1.47,1.16-2.79,1.9c-1.31,0.75-2.81,1.42-4.49,2.01c-1.68,0.59-3.5,1.06-5.47,1.43
				c-1.97,0.36-4,0.54-6.08,0.54c-4.67,0-8.8-0.73-12.41-2.18c-3.6-1.45-6.63-3.59-9.07-6.42c-2.45-2.83-4.29-6.29-5.54-10.37
				c-1.25-4.08-1.87-8.75-1.87-14c0-6.07,0.76-11.32,2.28-15.74c1.52-4.42,3.64-8.08,6.36-10.98c2.72-2.9,5.94-5.05,9.65-6.46
				c3.72-1.4,7.79-2.11,12.24-2.11c1.81,0,3.59,0.16,5.34,0.48c1.74,0.32,3.38,0.75,4.89,1.29c1.52,0.54,2.88,1.16,4.08,1.84
				c1.2,0.68,2.05,1.27,2.55,1.77c0.5,0.5,0.85,0.92,1.05,1.26c0.2,0.34,0.36,0.78,0.48,1.33c0.11,0.54,0.2,1.21,0.27,2.01
				c0.07,0.79,0.1,1.76,0.1,2.89c0,2.63-0.23,4.48-0.68,5.54c-0.45,1.07-1.04,1.6-1.77,1.6c-0.77,0-1.59-0.32-2.45-0.95
				c-0.86-0.63-1.88-1.34-3.06-2.11c-1.18-0.77-2.58-1.47-4.21-2.11c-1.63-0.63-3.58-0.95-5.85-0.95c-4.44,0-7.84,1.71-10.2,5.13
				c-2.36,3.42-3.53,8.44-3.53,15.06c0,3.26,0.29,6.14,0.88,8.63c0.59,2.49,1.46,4.58,2.62,6.25c1.16,1.68,2.6,2.94,4.35,3.77
				c1.74,0.84,3.77,1.26,6.08,1.26c2.36,0,4.38-0.35,6.08-1.05c1.7-0.7,3.18-1.48,4.45-2.35c1.27-0.86,2.33-1.64,3.19-2.35
				c0.86-0.7,1.59-1.05,2.18-1.05c0.41,0,0.75,0.11,1.02,0.34c0.27,0.23,0.49,0.65,0.65,1.26c0.16,0.61,0.28,1.39,0.37,2.35
				C931.79,727.88,931.84,729.11,931.84,730.6z"/>
		</g>
		<g>
			<path class="st3" d="M986.9,723.12c0,3.44-0.65,6.48-1.94,9.11c-1.29,2.63-3.12,4.83-5.47,6.59c-2.36,1.77-5.14,3.09-8.36,3.98
				c-3.22,0.88-6.71,1.33-10.47,1.33c-2.27,0-4.43-0.17-6.49-0.51c-2.06-0.34-3.91-0.77-5.54-1.29c-1.63-0.52-2.99-1.05-4.08-1.6
				c-1.09-0.54-1.88-1.05-2.38-1.53c-0.5-0.48-0.88-1.22-1.16-2.24c-0.27-1.02-0.41-2.53-0.41-4.52c0-1.31,0.04-2.37,0.14-3.16
				c0.09-0.79,0.23-1.43,0.41-1.9c0.18-0.48,0.41-0.79,0.68-0.95c0.27-0.16,0.61-0.24,1.02-0.24c0.5,0,1.23,0.28,2.21,0.85
				c0.97,0.57,2.19,1.19,3.64,1.87c1.45,0.68,3.14,1.31,5.06,1.9c1.93,0.59,4.11,0.88,6.56,0.88c1.54,0,2.91-0.16,4.11-0.48
				c1.2-0.32,2.24-0.77,3.13-1.36c0.88-0.59,1.55-1.34,2.01-2.24c0.45-0.91,0.68-1.95,0.68-3.13c0-1.36-0.42-2.53-1.26-3.5
				c-0.84-0.97-1.95-1.82-3.33-2.55c-1.38-0.72-2.95-1.4-4.69-2.04c-1.75-0.63-3.53-1.34-5.37-2.11c-1.84-0.77-3.63-1.65-5.37-2.65
				c-1.75-1-3.31-2.22-4.69-3.67c-1.38-1.45-2.49-3.19-3.33-5.23c-0.84-2.04-1.26-4.49-1.26-7.34c0-2.9,0.57-5.56,1.7-7.99
				c1.13-2.42,2.76-4.5,4.89-6.22c2.13-1.72,4.72-3.06,7.78-4.01c3.06-0.95,6.49-1.43,10.3-1.43c1.9,0,3.75,0.14,5.54,0.41
				c1.79,0.27,3.41,0.61,4.86,1.02c1.45,0.41,2.67,0.85,3.67,1.33c1,0.48,1.71,0.88,2.14,1.22c0.43,0.34,0.74,0.68,0.92,1.02
				c0.18,0.34,0.32,0.75,0.41,1.22c0.09,0.48,0.17,1.07,0.24,1.77c0.07,0.7,0.1,1.58,0.1,2.62c0,1.22-0.03,2.22-0.1,2.99
				c-0.07,0.77-0.18,1.38-0.34,1.84c-0.16,0.45-0.37,0.76-0.65,0.92c-0.27,0.16-0.59,0.24-0.95,0.24c-0.41,0-1.04-0.24-1.9-0.71
				c-0.86-0.48-1.94-0.99-3.23-1.53c-1.29-0.54-2.79-1.05-4.49-1.53c-1.7-0.48-3.64-0.71-5.81-0.71c-1.54,0-2.88,0.16-4.01,0.48
				c-1.13,0.32-2.06,0.77-2.79,1.36c-0.73,0.59-1.27,1.28-1.63,2.07c-0.36,0.79-0.54,1.64-0.54,2.55c0,1.41,0.43,2.58,1.29,3.53
				c0.86,0.95,1.99,1.79,3.4,2.52c1.4,0.73,3,1.41,4.79,2.04c1.79,0.63,3.6,1.33,5.44,2.07s3.65,1.62,5.44,2.62
				c1.79,1,3.39,2.22,4.79,3.67c1.4,1.45,2.54,3.18,3.4,5.2C986.47,717.97,986.9,720.36,986.9,723.12z"/>
		</g>
	</g>
	<g>
		<path class="st3" d="M134.67,108.27h-22.58c-14.46,0-26.18-11.72-26.18-26.18V50.17h74.95v31.92
			C160.86,96.55,149.13,108.27,134.67,108.27z"/>
	</g>
	<g>
		<g>
			<g>
				<path class="st3" d="M107.37,36.41c-2,0-3.62-1.04-3.62-2.33V2.33c0-1.28,1.62-2.33,3.62-2.33s3.62,1.04,3.62,2.33v31.76
					C110.99,35.37,109.37,36.41,107.37,36.41z"/>
			</g>
		</g>
		<g>
			<g>
				<path class="st3" d="M139.39,36.55c-2,0-3.62-1.04-3.62-2.33V2.47c0-1.28,1.62-2.33,3.62-2.33c2,0,3.62,1.04,3.62,2.33v31.76
					C143.01,35.51,141.39,36.55,139.39,36.55z"/>
			</g>
		</g>
	</g>
	<g>
		<g>
			<g>
				<g>
					<rect x="216.56" y="73.3" class="st3" width="77.65" height="8.44"/>
				</g>
			</g>
			<g>
				<circle class="st3" cx="298.43" cy="77.52" r="9.07"/>
			</g>
			<g>
				<circle class="st3" cx="212.34" cy="77.52" r="9.07"/>
			</g>
		</g>
		<g>
			<g>
				<g>
					<rect x="216.56" y="98.62" class="st3" width="77.65" height="8.44"/>
				</g>
			</g>
			<g>
				<circle class="st3" cx="298.43" cy="102.84" r="9.07"/>
			</g>
			<g>
				<circle class="st3" cx="212.34" cy="102.84" r="9.07"/>
			</g>
		</g>
	</g>
	<g>
		<path class="st3" d="M135.19,608.94c-26.51-26.51-47.33-57.4-61.88-91.8c-15.04-35.55-22.68-73.29-22.72-112.16H0
			c0,0.24,0,0.49,0.01,0.73c0.12,45.43,9.11,89.55,26.71,131.14c17.1,40.44,41.56,76.73,72.7,107.86
			c31.13,31.14,67.42,55.6,107.86,72.7c41.91,17.74,86.37,26.72,132.15,26.72v-50.59c-38.97,0-76.81-7.65-112.44-22.72
			C192.58,656.27,161.69,635.45,135.19,608.94z"/>
	</g>
	<g>
		<path class="st3" d="M525.8,218.33c-49.78-49.78-115.96-77.19-186.36-77.19c-70.19,0-136.18,27.25-185.9,76.75l35.84,35.84
			c38.53-38.3,91.58-62,150.06-62c117.43,0,212.97,95.54,212.97,212.97h50.59C602.99,334.29,575.58,268.11,525.8,218.33z"/>
	</g>
	<path class="st1" d="M165.95,47.86h-86c-2.49,0-4.5-2.01-4.5-4.5v0c0-2.49,2.01-4.5,4.5-4.5h86c2.49,0,4.5,2.01,4.5,4.5v0
		C170.45,45.85,168.44,47.86,165.95,47.86z"/>
</g>
</svg>
