<?xml version="1.0" encoding="utf-8"?>
<!-- Generator: Adobe Illustrator 25.4.1, SVG Export Plug-In . SVG Version: 6.00 Build 0)  -->
<svg version="1.1" id="Layer_1" xmlns="http://www.w3.org/2000/svg" xmlns:xlink="http://www.w3.org/1999/xlink" x="0px" y="0px"
	 viewBox="0 0 67 67" style="enable-background:new 0 0 67 67;" xml:space="preserve">
<style type="text/css">
	.st0{fill:#0D6EFD;}
</style>
<g>
	<g>
		<g>
			<path class="st0" d="M19.78,30.77c0,0.13-0.01,0.23-0.02,0.32c-0.01,0.09-0.03,0.16-0.05,0.22c-0.02,0.06-0.05,0.1-0.08,0.12
				c-0.03,0.03-0.07,0.04-0.11,0.04h-3.77c-0.14,0-0.26-0.04-0.35-0.12s-0.14-0.22-0.14-0.4v-7.46c0-0.04,0.01-0.08,0.04-0.11
				c0.03-0.03,0.07-0.06,0.14-0.08c0.06-0.02,0.15-0.04,0.26-0.05c0.11-0.01,0.24-0.02,0.4-0.02c0.17,0,0.3,0.01,0.41,0.02
				c0.11,0.01,0.19,0.03,0.25,0.05c0.06,0.02,0.11,0.05,0.14,0.08c0.03,0.03,0.04,0.07,0.04,0.11v6.61h2.58
				c0.04,0,0.08,0.01,0.11,0.03c0.03,0.02,0.06,0.06,0.08,0.11c0.02,0.05,0.04,0.12,0.05,0.21C19.77,30.54,19.78,30.64,19.78,30.77z
				"/>
		</g>
		<g>
			<path class="st0" d="M22.39,23.67c0,0.32-0.07,0.54-0.2,0.67c-0.13,0.12-0.37,0.18-0.73,0.18c-0.36,0-0.6-0.06-0.73-0.18
				c-0.12-0.12-0.19-0.33-0.19-0.64c0-0.32,0.06-0.54,0.19-0.67c0.13-0.12,0.37-0.19,0.73-0.19c0.36,0,0.6,0.06,0.72,0.18
				C22.32,23.15,22.39,23.36,22.39,23.67z M22.27,31.25c0,0.04-0.01,0.08-0.04,0.11c-0.03,0.03-0.07,0.06-0.13,0.08
				c-0.06,0.02-0.14,0.04-0.24,0.05c-0.1,0.01-0.23,0.02-0.39,0.02c-0.16,0-0.29-0.01-0.39-0.02c-0.1-0.01-0.18-0.03-0.24-0.05
				c-0.06-0.02-0.1-0.05-0.13-0.08c-0.03-0.03-0.04-0.07-0.04-0.11V25.6c0-0.04,0.01-0.08,0.04-0.11c0.03-0.03,0.07-0.06,0.13-0.08
				c0.06-0.02,0.14-0.04,0.24-0.05s0.23-0.02,0.39-0.02c0.16,0,0.29,0.01,0.39,0.02s0.18,0.03,0.24,0.05
				c0.06,0.02,0.1,0.05,0.13,0.08c0.03,0.03,0.04,0.07,0.04,0.11V31.25z"/>
		</g>
		<g>
			<path class="st0" d="M29.56,28.34c0,0.5-0.06,0.96-0.17,1.36c-0.11,0.4-0.27,0.75-0.48,1.03c-0.21,0.28-0.46,0.5-0.77,0.65
				c-0.3,0.15-0.65,0.23-1.03,0.23c-0.19,0-0.37-0.02-0.53-0.05c-0.17-0.04-0.32-0.09-0.47-0.17c-0.15-0.08-0.3-0.18-0.44-0.3
				c-0.15-0.12-0.3-0.27-0.45-0.44v0.62c0,0.05-0.01,0.09-0.03,0.12c-0.02,0.03-0.06,0.06-0.11,0.08c-0.05,0.02-0.12,0.04-0.21,0.04
				c-0.09,0.01-0.2,0.01-0.32,0.01c-0.13,0-0.24,0-0.33-0.01c-0.09-0.01-0.16-0.02-0.21-0.04c-0.05-0.02-0.09-0.05-0.11-0.08
				c-0.02-0.03-0.03-0.07-0.03-0.12V22.9c0-0.04,0.01-0.08,0.04-0.11c0.03-0.03,0.07-0.06,0.13-0.09c0.06-0.02,0.14-0.04,0.24-0.05
				s0.23-0.02,0.39-0.02c0.16,0,0.29,0.01,0.39,0.02s0.18,0.03,0.24,0.05c0.06,0.02,0.1,0.05,0.13,0.09
				c0.03,0.03,0.04,0.07,0.04,0.11v3.13c0.14-0.14,0.29-0.27,0.43-0.37c0.14-0.1,0.29-0.19,0.43-0.25c0.14-0.07,0.29-0.11,0.44-0.14
				c0.15-0.03,0.31-0.04,0.48-0.04c0.42,0,0.77,0.08,1.07,0.25c0.29,0.17,0.53,0.39,0.71,0.68c0.18,0.28,0.32,0.61,0.4,0.99
				C29.52,27.53,29.56,27.92,29.56,28.34z M27.91,28.46c0-0.24-0.02-0.47-0.05-0.7c-0.04-0.22-0.1-0.42-0.19-0.6
				c-0.09-0.17-0.2-0.31-0.35-0.42c-0.14-0.1-0.32-0.16-0.54-0.16c-0.11,0-0.21,0.01-0.31,0.04c-0.1,0.03-0.21,0.08-0.31,0.15
				c-0.11,0.07-0.22,0.17-0.33,0.28c-0.11,0.11-0.23,0.26-0.36,0.43v1.88c0.22,0.29,0.44,0.51,0.64,0.66
				c0.21,0.15,0.42,0.23,0.64,0.23c0.21,0,0.38-0.05,0.53-0.16c0.14-0.11,0.26-0.24,0.36-0.41c0.1-0.17,0.16-0.36,0.21-0.58
				C27.88,28.89,27.91,28.67,27.91,28.46z"/>
		</g>
		<g>
			<path class="st0" d="M36.07,28.25c0,0.19-0.04,0.34-0.13,0.43c-0.09,0.09-0.21,0.14-0.36,0.14h-3.45c0,0.24,0.03,0.46,0.09,0.66
				c0.06,0.2,0.15,0.36,0.27,0.5c0.12,0.14,0.29,0.24,0.48,0.31c0.2,0.07,0.43,0.11,0.71,0.11c0.28,0,0.52-0.02,0.74-0.06
				c0.21-0.04,0.39-0.08,0.55-0.13c0.15-0.05,0.28-0.09,0.38-0.13c0.1-0.04,0.18-0.06,0.25-0.06c0.04,0,0.07,0.01,0.1,0.02
				c0.03,0.01,0.05,0.04,0.06,0.08c0.02,0.04,0.03,0.09,0.03,0.16c0.01,0.07,0.01,0.16,0.01,0.26c0,0.09,0,0.17-0.01,0.24
				c0,0.07-0.01,0.12-0.02,0.17c-0.01,0.05-0.02,0.09-0.04,0.12c-0.02,0.03-0.04,0.06-0.07,0.09c-0.03,0.03-0.1,0.07-0.23,0.12
				c-0.12,0.05-0.28,0.1-0.47,0.15c-0.19,0.05-0.41,0.09-0.65,0.13c-0.25,0.04-0.51,0.05-0.79,0.05c-0.5,0-0.95-0.06-1.32-0.19
				c-0.38-0.13-0.7-0.32-0.95-0.58c-0.25-0.26-0.44-0.58-0.57-0.98c-0.12-0.39-0.19-0.86-0.19-1.38c0-0.5,0.07-0.96,0.2-1.36
				c0.13-0.4,0.32-0.75,0.57-1.03c0.25-0.28,0.55-0.5,0.91-0.64c0.36-0.15,0.76-0.22,1.21-0.22c0.47,0,0.88,0.07,1.22,0.21
				s0.61,0.33,0.83,0.58c0.22,0.25,0.37,0.54,0.48,0.88c0.1,0.34,0.15,0.71,0.15,1.1V28.25z M34.52,27.8
				c0.01-0.45-0.08-0.8-0.27-1.06c-0.19-0.26-0.49-0.38-0.89-0.38c-0.2,0-0.38,0.04-0.53,0.11c-0.15,0.08-0.28,0.18-0.37,0.31
				c-0.1,0.13-0.18,0.28-0.23,0.46c-0.05,0.18-0.08,0.36-0.09,0.56H34.52z"/>
		</g>
		<g>
			<path class="st0" d="M41.03,26.11c0,0.15,0,0.28-0.01,0.37c-0.01,0.1-0.02,0.17-0.04,0.23c-0.02,0.06-0.04,0.09-0.07,0.11
				c-0.03,0.02-0.06,0.03-0.1,0.03c-0.03,0-0.07-0.01-0.11-0.02c-0.04-0.01-0.09-0.03-0.14-0.05c-0.05-0.02-0.11-0.03-0.17-0.05
				c-0.06-0.01-0.13-0.02-0.21-0.02c-0.09,0-0.18,0.02-0.27,0.05c-0.09,0.04-0.18,0.09-0.28,0.17c-0.1,0.08-0.19,0.18-0.3,0.3
				c-0.1,0.13-0.21,0.28-0.33,0.47v3.53c0,0.04-0.01,0.08-0.04,0.11c-0.03,0.03-0.07,0.06-0.13,0.08c-0.06,0.02-0.14,0.04-0.24,0.05
				c-0.1,0.01-0.23,0.02-0.39,0.02c-0.16,0-0.29-0.01-0.39-0.02c-0.1-0.01-0.18-0.03-0.24-0.05c-0.06-0.02-0.1-0.05-0.13-0.08
				s-0.04-0.07-0.04-0.11v-5.66c0-0.04,0.01-0.08,0.03-0.11c0.02-0.03,0.06-0.06,0.11-0.08c0.05-0.02,0.13-0.04,0.21-0.05
				c0.09-0.01,0.2-0.02,0.33-0.02c0.14,0,0.25,0.01,0.34,0.02c0.09,0.01,0.16,0.03,0.21,0.05c0.05,0.02,0.08,0.05,0.1,0.08
				c0.02,0.03,0.03,0.07,0.03,0.11v0.7c0.15-0.21,0.29-0.39,0.42-0.52c0.13-0.14,0.26-0.25,0.37-0.33c0.12-0.08,0.24-0.14,0.36-0.17
				c0.12-0.03,0.24-0.05,0.36-0.05c0.05,0,0.11,0,0.18,0.01c0.06,0.01,0.13,0.02,0.2,0.03c0.07,0.01,0.13,0.03,0.18,0.05
				c0.05,0.02,0.09,0.04,0.11,0.06c0.02,0.02,0.04,0.04,0.05,0.07c0.01,0.03,0.02,0.06,0.03,0.1c0.01,0.04,0.01,0.11,0.02,0.2
				C41.02,25.84,41.03,25.96,41.03,26.11z"/>
		</g>
		<g>
			<path class="st0" d="M45.36,30.69c0,0.19-0.01,0.33-0.03,0.43c-0.02,0.1-0.05,0.17-0.09,0.21c-0.04,0.04-0.09,0.08-0.17,0.11
				c-0.07,0.03-0.16,0.06-0.26,0.08c-0.1,0.02-0.21,0.04-0.32,0.05c-0.12,0.01-0.23,0.02-0.35,0.02c-0.32,0-0.59-0.04-0.83-0.12
				c-0.23-0.08-0.43-0.2-0.58-0.37c-0.15-0.17-0.26-0.38-0.34-0.63c-0.07-0.25-0.11-0.55-0.11-0.9v-2.9H41.6
				c-0.08,0-0.14-0.05-0.18-0.15c-0.04-0.1-0.06-0.27-0.06-0.5c0-0.12,0.01-0.23,0.02-0.31c0.01-0.08,0.03-0.15,0.05-0.2
				c0.02-0.05,0.05-0.08,0.08-0.1c0.03-0.02,0.07-0.03,0.11-0.03h0.67v-1.26c0-0.04,0.01-0.08,0.03-0.11
				c0.02-0.03,0.07-0.06,0.13-0.09c0.06-0.02,0.14-0.04,0.25-0.05c0.1-0.01,0.23-0.02,0.38-0.02c0.16,0,0.29,0.01,0.39,0.02
				c0.1,0.01,0.19,0.03,0.24,0.05c0.06,0.02,0.1,0.05,0.13,0.09c0.03,0.03,0.04,0.07,0.04,0.11v1.26h1.23
				c0.04,0,0.08,0.01,0.11,0.03c0.03,0.02,0.06,0.06,0.08,0.1c0.02,0.05,0.04,0.12,0.05,0.2c0.01,0.08,0.02,0.19,0.02,0.31
				c0,0.23-0.02,0.4-0.06,0.5c-0.04,0.1-0.1,0.15-0.18,0.15h-1.24v2.66c0,0.31,0.05,0.54,0.15,0.7c0.1,0.15,0.27,0.23,0.52,0.23
				c0.08,0,0.16-0.01,0.23-0.02c0.07-0.01,0.13-0.03,0.18-0.05c0.05-0.02,0.1-0.04,0.13-0.05c0.04-0.01,0.07-0.02,0.1-0.02
				c0.03,0,0.05,0.01,0.07,0.02c0.02,0.01,0.04,0.04,0.05,0.09c0.01,0.04,0.02,0.1,0.03,0.18C45.36,30.48,45.36,30.57,45.36,30.69z"
				/>
		</g>
		<g>
			<path class="st0" d="M49.8,31.47l-0.69,2.01c-0.04,0.11-0.14,0.18-0.31,0.23c-0.17,0.05-0.42,0.07-0.74,0.07
				c-0.17,0-0.3-0.01-0.41-0.02c-0.1-0.01-0.18-0.04-0.23-0.07c-0.05-0.03-0.08-0.08-0.08-0.13c0-0.05,0.01-0.11,0.04-0.18l0.76-1.9
				c-0.06-0.03-0.1-0.06-0.15-0.12c-0.04-0.05-0.08-0.11-0.1-0.17l-1.95-5.21c-0.06-0.15-0.08-0.26-0.08-0.34
				c0-0.08,0.03-0.14,0.08-0.18c0.05-0.04,0.14-0.08,0.26-0.09c0.12-0.02,0.28-0.03,0.48-0.03c0.18,0,0.33,0,0.43,0.01
				c0.11,0.01,0.19,0.02,0.25,0.05c0.06,0.03,0.1,0.06,0.13,0.12c0.03,0.05,0.06,0.13,0.09,0.23l1.33,3.79h0.02l1.22-3.87
				c0.03-0.11,0.06-0.18,0.1-0.22c0.04-0.04,0.11-0.06,0.2-0.08c0.09-0.02,0.26-0.03,0.49-0.03c0.18,0,0.33,0.01,0.45,0.03
				c0.12,0.02,0.21,0.05,0.27,0.1c0.06,0.05,0.09,0.11,0.09,0.19c0,0.08-0.02,0.17-0.05,0.28L49.8,31.47z"/>
		</g>
	</g>
	<g>
		<g>
			<path class="st0" d="M9.87,43.57c0,0.12-0.01,0.23-0.02,0.31c-0.01,0.08-0.03,0.15-0.05,0.2c-0.02,0.05-0.05,0.09-0.08,0.11
				c-0.03,0.02-0.07,0.03-0.1,0.03H5.5c-0.14,0-0.26-0.04-0.35-0.12S5,43.89,5,43.7v-7.16c0-0.19,0.05-0.32,0.14-0.4
				s0.21-0.12,0.35-0.12h4.1c0.04,0,0.07,0.01,0.1,0.03c0.03,0.02,0.05,0.06,0.08,0.11c0.02,0.05,0.04,0.12,0.05,0.2
				c0.01,0.08,0.02,0.19,0.02,0.31c0,0.12-0.01,0.22-0.02,0.3c-0.01,0.08-0.03,0.15-0.05,0.2c-0.02,0.05-0.05,0.09-0.08,0.11
				c-0.03,0.02-0.06,0.03-0.1,0.03H6.66v2.01h2.48c0.04,0,0.07,0.01,0.1,0.03c0.03,0.02,0.06,0.06,0.08,0.11
				c0.02,0.05,0.04,0.11,0.05,0.2c0.01,0.08,0.02,0.18,0.02,0.3c0,0.12-0.01,0.22-0.02,0.3c-0.01,0.08-0.03,0.15-0.05,0.19
				c-0.02,0.05-0.05,0.08-0.08,0.1c-0.03,0.02-0.07,0.03-0.1,0.03H6.66v2.32h2.96c0.04,0,0.07,0.01,0.1,0.03
				c0.03,0.02,0.06,0.06,0.08,0.11c0.02,0.05,0.04,0.12,0.05,0.2C9.87,43.35,9.87,43.45,9.87,43.57z"/>
		</g>
		<g>
			<path class="st0" d="M12.85,44.01c0,0.04-0.01,0.08-0.04,0.11s-0.07,0.06-0.13,0.08c-0.06,0.02-0.14,0.04-0.24,0.05
				c-0.1,0.01-0.23,0.02-0.39,0.02c-0.16,0-0.29-0.01-0.39-0.02c-0.1-0.01-0.18-0.03-0.24-0.05c-0.06-0.02-0.1-0.05-0.13-0.08
				s-0.04-0.07-0.04-0.11v-8.35c0-0.04,0.01-0.08,0.04-0.11c0.03-0.03,0.07-0.06,0.13-0.09c0.06-0.02,0.14-0.04,0.24-0.05
				c0.1-0.01,0.23-0.02,0.39-0.02c0.16,0,0.29,0.01,0.39,0.02c0.1,0.01,0.18,0.03,0.24,0.05c0.06,0.02,0.1,0.05,0.13,0.09
				c0.03,0.03,0.04,0.07,0.04,0.11V44.01z"/>
		</g>
		<g>
			<path class="st0" d="M19.68,41.01c0,0.19-0.04,0.34-0.13,0.43c-0.09,0.09-0.21,0.14-0.36,0.14h-3.45c0,0.24,0.03,0.46,0.09,0.66
				c0.06,0.2,0.15,0.36,0.27,0.5c0.12,0.14,0.29,0.24,0.48,0.31c0.2,0.07,0.43,0.11,0.71,0.11c0.28,0,0.52-0.02,0.74-0.06
				c0.21-0.04,0.39-0.08,0.55-0.13c0.15-0.05,0.28-0.09,0.38-0.13c0.1-0.04,0.18-0.06,0.25-0.06c0.04,0,0.07,0.01,0.1,0.02
				c0.03,0.01,0.05,0.04,0.06,0.08c0.02,0.04,0.03,0.09,0.03,0.16c0.01,0.07,0.01,0.16,0.01,0.26c0,0.09,0,0.17-0.01,0.24
				c0,0.07-0.01,0.12-0.02,0.17c-0.01,0.05-0.02,0.09-0.04,0.12c-0.02,0.03-0.04,0.06-0.07,0.09c-0.03,0.03-0.1,0.07-0.23,0.12
				c-0.12,0.05-0.28,0.1-0.47,0.15c-0.19,0.05-0.41,0.09-0.65,0.13c-0.25,0.04-0.51,0.05-0.79,0.05c-0.5,0-0.95-0.06-1.32-0.19
				c-0.38-0.13-0.7-0.32-0.95-0.58c-0.25-0.26-0.44-0.58-0.57-0.98c-0.12-0.39-0.19-0.86-0.19-1.38c0-0.5,0.07-0.96,0.2-1.36
				c0.13-0.4,0.32-0.75,0.57-1.03c0.25-0.28,0.55-0.5,0.91-0.64c0.36-0.15,0.76-0.22,1.21-0.22c0.47,0,0.88,0.07,1.22,0.21
				c0.34,0.14,0.61,0.33,0.83,0.58c0.22,0.25,0.37,0.54,0.48,0.88c0.1,0.34,0.15,0.71,0.15,1.1V41.01z M18.13,40.56
				c0.01-0.45-0.08-0.8-0.27-1.06c-0.19-0.26-0.49-0.38-0.89-0.38c-0.2,0-0.38,0.04-0.53,0.11c-0.15,0.08-0.28,0.18-0.37,0.31
				c-0.1,0.13-0.18,0.28-0.23,0.46c-0.05,0.18-0.08,0.36-0.09,0.56H18.13z"/>
		</g>
		<g>
			<path class="st0" d="M25.28,43.11c0,0.11,0,0.2-0.01,0.28c-0.01,0.07-0.01,0.14-0.03,0.19c-0.01,0.05-0.02,0.09-0.04,0.12
				c-0.01,0.03-0.05,0.07-0.1,0.12c-0.05,0.05-0.14,0.11-0.26,0.18c-0.12,0.07-0.26,0.13-0.42,0.19c-0.16,0.05-0.33,0.1-0.51,0.13
				c-0.18,0.03-0.37,0.05-0.57,0.05c-0.44,0-0.82-0.07-1.16-0.2c-0.34-0.14-0.62-0.34-0.85-0.6c-0.23-0.26-0.4-0.59-0.52-0.97
				c-0.12-0.38-0.17-0.82-0.17-1.31c0-0.57,0.07-1.06,0.21-1.47c0.14-0.41,0.34-0.75,0.59-1.03c0.25-0.27,0.55-0.47,0.9-0.6
				c0.35-0.13,0.73-0.2,1.14-0.2c0.17,0,0.34,0.01,0.5,0.04c0.16,0.03,0.32,0.07,0.46,0.12c0.14,0.05,0.27,0.11,0.38,0.17
				c0.11,0.06,0.19,0.12,0.24,0.17c0.05,0.05,0.08,0.09,0.1,0.12c0.02,0.03,0.03,0.07,0.04,0.12c0.01,0.05,0.02,0.11,0.03,0.19
				c0.01,0.07,0.01,0.16,0.01,0.27c0,0.25-0.02,0.42-0.06,0.52c-0.04,0.1-0.1,0.15-0.17,0.15c-0.07,0-0.15-0.03-0.23-0.09
				c-0.08-0.06-0.18-0.12-0.29-0.2c-0.11-0.07-0.24-0.14-0.39-0.2c-0.15-0.06-0.33-0.09-0.55-0.09c-0.41,0-0.73,0.16-0.95,0.48
				c-0.22,0.32-0.33,0.79-0.33,1.41c0,0.3,0.03,0.57,0.08,0.81c0.05,0.23,0.14,0.43,0.24,0.58c0.11,0.16,0.24,0.27,0.41,0.35
				c0.16,0.08,0.35,0.12,0.57,0.12c0.22,0,0.41-0.03,0.57-0.1c0.16-0.07,0.3-0.14,0.42-0.22c0.12-0.08,0.22-0.15,0.3-0.22
				c0.08-0.07,0.15-0.1,0.2-0.1c0.04,0,0.07,0.01,0.1,0.03c0.03,0.02,0.05,0.06,0.06,0.12c0.01,0.06,0.03,0.13,0.03,0.22
				C25.27,42.85,25.28,42.97,25.28,43.11z"/>
		</g>
		<g>
			<path class="st0" d="M29.79,43.45c0,0.19-0.01,0.33-0.03,0.43c-0.02,0.1-0.05,0.17-0.09,0.21c-0.04,0.04-0.09,0.08-0.17,0.11
				c-0.07,0.03-0.16,0.06-0.26,0.08c-0.1,0.02-0.21,0.04-0.32,0.05c-0.12,0.01-0.23,0.02-0.35,0.02c-0.32,0-0.59-0.04-0.83-0.12
				c-0.23-0.08-0.43-0.2-0.58-0.37c-0.15-0.17-0.26-0.38-0.34-0.63c-0.07-0.25-0.11-0.55-0.11-0.9v-2.9h-0.68
				c-0.08,0-0.14-0.05-0.18-0.15c-0.04-0.1-0.06-0.27-0.06-0.5c0-0.12,0.01-0.23,0.02-0.31c0.01-0.08,0.03-0.15,0.05-0.2
				c0.02-0.05,0.05-0.08,0.08-0.1c0.03-0.02,0.07-0.03,0.11-0.03h0.67v-1.26c0-0.04,0.01-0.08,0.03-0.11
				c0.02-0.03,0.07-0.06,0.13-0.09c0.06-0.02,0.14-0.04,0.25-0.05c0.1-0.01,0.23-0.02,0.38-0.02c0.16,0,0.29,0.01,0.39,0.02
				c0.1,0.01,0.19,0.03,0.24,0.05c0.06,0.02,0.1,0.05,0.13,0.09c0.03,0.03,0.04,0.07,0.04,0.11v1.26h1.23
				c0.04,0,0.08,0.01,0.11,0.03c0.03,0.02,0.06,0.06,0.08,0.1c0.02,0.05,0.04,0.12,0.05,0.2c0.01,0.08,0.02,0.19,0.02,0.31
				c0,0.23-0.02,0.4-0.06,0.5c-0.04,0.1-0.1,0.15-0.18,0.15H28.3v2.66c0,0.31,0.05,0.54,0.15,0.7c0.1,0.15,0.27,0.23,0.52,0.23
				c0.08,0,0.16-0.01,0.23-0.02c0.07-0.01,0.13-0.03,0.18-0.05c0.05-0.02,0.1-0.04,0.13-0.05c0.04-0.01,0.07-0.02,0.1-0.02
				c0.03,0,0.05,0.01,0.07,0.02c0.02,0.01,0.04,0.04,0.05,0.09s0.02,0.1,0.03,0.18C29.78,43.24,29.79,43.33,29.79,43.45z"/>
		</g>
		<g>
			<path class="st0" d="M34.58,38.87c0,0.15,0,0.28-0.01,0.37c-0.01,0.1-0.02,0.17-0.04,0.23c-0.02,0.06-0.04,0.09-0.07,0.11
				c-0.03,0.02-0.06,0.03-0.1,0.03c-0.03,0-0.07-0.01-0.11-0.02c-0.04-0.01-0.09-0.03-0.14-0.05c-0.05-0.02-0.11-0.03-0.17-0.05
				c-0.06-0.01-0.13-0.02-0.21-0.02c-0.09,0-0.18,0.02-0.27,0.05c-0.09,0.04-0.18,0.09-0.28,0.17c-0.1,0.08-0.19,0.18-0.3,0.3
				c-0.1,0.13-0.21,0.28-0.33,0.47v3.53c0,0.04-0.01,0.08-0.04,0.11c-0.03,0.03-0.07,0.06-0.13,0.08c-0.06,0.02-0.14,0.04-0.24,0.05
				c-0.1,0.01-0.23,0.02-0.39,0.02c-0.16,0-0.29-0.01-0.39-0.02c-0.1-0.01-0.18-0.03-0.24-0.05c-0.06-0.02-0.1-0.05-0.13-0.08
				c-0.03-0.03-0.04-0.07-0.04-0.11v-5.66c0-0.04,0.01-0.08,0.03-0.11c0.02-0.03,0.06-0.06,0.11-0.08c0.05-0.02,0.13-0.04,0.21-0.05
				c0.09-0.01,0.2-0.02,0.33-0.02c0.14,0,0.25,0.01,0.34,0.02c0.09,0.01,0.16,0.03,0.21,0.05c0.05,0.02,0.08,0.05,0.1,0.08
				c0.02,0.03,0.03,0.07,0.03,0.11v0.7c0.15-0.21,0.29-0.39,0.42-0.52c0.13-0.14,0.26-0.25,0.37-0.33c0.12-0.08,0.24-0.14,0.36-0.17
				c0.12-0.03,0.24-0.05,0.36-0.05c0.05,0,0.11,0,0.18,0.01c0.06,0.01,0.13,0.02,0.2,0.03c0.07,0.01,0.13,0.03,0.18,0.05
				c0.05,0.02,0.09,0.04,0.11,0.06c0.02,0.02,0.04,0.04,0.05,0.07c0.01,0.03,0.02,0.06,0.03,0.1c0.01,0.04,0.01,0.11,0.02,0.2
				C34.58,38.6,34.58,38.72,34.58,38.87z"/>
		</g>
		<g>
			<path class="st0" d="M41.13,41.12c0,0.48-0.06,0.92-0.19,1.32c-0.13,0.4-0.32,0.74-0.58,1.03c-0.26,0.29-0.58,0.51-0.97,0.67
				c-0.39,0.16-0.84,0.23-1.37,0.23c-0.5,0-0.94-0.07-1.31-0.21c-0.37-0.14-0.68-0.34-0.93-0.61c-0.25-0.27-0.43-0.59-0.55-0.98
				c-0.12-0.39-0.18-0.83-0.18-1.33c0-0.48,0.06-0.92,0.19-1.32c0.13-0.4,0.32-0.74,0.58-1.03c0.26-0.29,0.58-0.51,0.97-0.66
				c0.39-0.16,0.84-0.23,1.36-0.23c0.51,0,0.95,0.07,1.32,0.21c0.37,0.14,0.68,0.34,0.92,0.61c0.24,0.27,0.42,0.59,0.54,0.98
				C41.07,40.17,41.13,40.62,41.13,41.12z M39.49,41.18c0-0.28-0.02-0.54-0.07-0.77c-0.04-0.23-0.12-0.44-0.23-0.61
				c-0.11-0.17-0.25-0.31-0.42-0.41c-0.18-0.1-0.4-0.15-0.66-0.15c-0.24,0-0.44,0.04-0.62,0.13c-0.18,0.09-0.32,0.21-0.44,0.38
				c-0.11,0.17-0.2,0.37-0.26,0.6c-0.06,0.23-0.09,0.5-0.09,0.8c0,0.28,0.02,0.54,0.07,0.77c0.05,0.23,0.12,0.44,0.23,0.61
				c0.1,0.17,0.24,0.31,0.42,0.4s0.4,0.14,0.66,0.14c0.24,0,0.45-0.04,0.63-0.13c0.18-0.09,0.32-0.21,0.44-0.38
				c0.11-0.17,0.2-0.37,0.25-0.6C39.46,41.75,39.49,41.48,39.49,41.18z"/>
		</g>
		<g>
			<path class="st0" d="M47.81,44.01c0,0.04-0.01,0.08-0.04,0.11s-0.07,0.06-0.13,0.08c-0.06,0.02-0.14,0.04-0.24,0.05
				c-0.1,0.01-0.23,0.02-0.38,0.02c-0.16,0-0.29-0.01-0.39-0.02c-0.1-0.01-0.19-0.03-0.24-0.05c-0.06-0.02-0.1-0.05-0.13-0.08
				c-0.03-0.03-0.04-0.07-0.04-0.11v-3.23c0-0.28-0.02-0.49-0.06-0.65c-0.04-0.16-0.1-0.29-0.17-0.4c-0.08-0.11-0.17-0.2-0.3-0.26
				c-0.12-0.06-0.26-0.09-0.42-0.09c-0.2,0-0.41,0.07-0.62,0.22c-0.21,0.15-0.42,0.36-0.65,0.65v3.77c0,0.04-0.01,0.08-0.04,0.11
				c-0.03,0.03-0.07,0.06-0.13,0.08c-0.06,0.02-0.14,0.04-0.24,0.05c-0.1,0.01-0.23,0.02-0.39,0.02c-0.16,0-0.29-0.01-0.39-0.02
				c-0.1-0.01-0.18-0.03-0.24-0.05c-0.06-0.02-0.1-0.05-0.13-0.08s-0.04-0.07-0.04-0.11v-5.66c0-0.04,0.01-0.08,0.03-0.11
				c0.02-0.03,0.06-0.06,0.11-0.08c0.05-0.02,0.13-0.04,0.21-0.05c0.09-0.01,0.2-0.02,0.33-0.02c0.14,0,0.25,0.01,0.34,0.02
				c0.09,0.01,0.16,0.03,0.21,0.05c0.05,0.02,0.08,0.05,0.1,0.08c0.02,0.03,0.03,0.07,0.03,0.11V39c0.31-0.34,0.63-0.59,0.96-0.76
				c0.32-0.17,0.66-0.25,1.01-0.25c0.39,0,0.71,0.06,0.97,0.19c0.26,0.13,0.48,0.3,0.64,0.52c0.16,0.22,0.28,0.47,0.35,0.77
				c0.07,0.29,0.11,0.64,0.11,1.05V44.01z"/>
		</g>
		<g>
			<path class="st0" d="M51.1,36.43c0,0.32-0.07,0.54-0.2,0.67c-0.13,0.12-0.37,0.18-0.73,0.18c-0.36,0-0.6-0.06-0.73-0.18
				c-0.12-0.12-0.19-0.33-0.19-0.64c0-0.32,0.06-0.54,0.19-0.67c0.13-0.12,0.37-0.19,0.73-0.19c0.36,0,0.6,0.06,0.72,0.18
				C51.03,35.9,51.1,36.12,51.1,36.43z M50.98,44.01c0,0.04-0.01,0.08-0.04,0.11c-0.03,0.03-0.07,0.06-0.13,0.08
				c-0.06,0.02-0.14,0.04-0.24,0.05c-0.1,0.01-0.23,0.02-0.39,0.02c-0.16,0-0.29-0.01-0.39-0.02c-0.1-0.01-0.18-0.03-0.24-0.05
				c-0.06-0.02-0.1-0.05-0.13-0.08c-0.03-0.03-0.04-0.07-0.04-0.11v-5.65c0-0.04,0.01-0.08,0.04-0.11c0.03-0.03,0.07-0.06,0.13-0.08
				c0.06-0.02,0.14-0.04,0.24-0.05c0.1-0.01,0.23-0.02,0.39-0.02c0.16,0,0.29,0.01,0.39,0.02c0.1,0.01,0.18,0.03,0.24,0.05
				c0.06,0.02,0.1,0.05,0.13,0.08c0.03,0.03,0.04,0.07,0.04,0.11V44.01z"/>
		</g>
		<g>
			<path class="st0" d="M56.86,43.11c0,0.11,0,0.2-0.01,0.28c-0.01,0.07-0.01,0.14-0.03,0.19c-0.01,0.05-0.02,0.09-0.04,0.12
				c-0.01,0.03-0.05,0.07-0.1,0.12c-0.05,0.05-0.14,0.11-0.26,0.18c-0.12,0.07-0.26,0.13-0.42,0.19c-0.16,0.05-0.33,0.1-0.51,0.13
				c-0.18,0.03-0.37,0.05-0.57,0.05c-0.44,0-0.82-0.07-1.16-0.2c-0.34-0.14-0.62-0.34-0.85-0.6c-0.23-0.26-0.4-0.59-0.52-0.97
				c-0.12-0.38-0.17-0.82-0.17-1.31c0-0.57,0.07-1.06,0.21-1.47c0.14-0.41,0.34-0.75,0.59-1.03c0.25-0.27,0.55-0.47,0.9-0.6
				c0.35-0.13,0.73-0.2,1.14-0.2c0.17,0,0.34,0.01,0.5,0.04c0.16,0.03,0.32,0.07,0.46,0.12c0.14,0.05,0.27,0.11,0.38,0.17
				c0.11,0.06,0.19,0.12,0.24,0.17c0.05,0.05,0.08,0.09,0.1,0.12c0.02,0.03,0.03,0.07,0.04,0.12c0.01,0.05,0.02,0.11,0.03,0.19
				c0.01,0.07,0.01,0.16,0.01,0.27c0,0.25-0.02,0.42-0.06,0.52c-0.04,0.1-0.1,0.15-0.17,0.15c-0.07,0-0.15-0.03-0.23-0.09
				c-0.08-0.06-0.18-0.12-0.29-0.2c-0.11-0.07-0.24-0.14-0.39-0.2c-0.15-0.06-0.33-0.09-0.55-0.09c-0.41,0-0.73,0.16-0.95,0.48
				c-0.22,0.32-0.33,0.79-0.33,1.41c0,0.3,0.03,0.57,0.08,0.81c0.05,0.23,0.14,0.43,0.24,0.58c0.11,0.16,0.24,0.27,0.41,0.35
				c0.16,0.08,0.35,0.12,0.57,0.12c0.22,0,0.41-0.03,0.57-0.1c0.16-0.07,0.3-0.14,0.42-0.22c0.12-0.08,0.22-0.15,0.3-0.22
				c0.08-0.07,0.15-0.1,0.2-0.1c0.04,0,0.07,0.01,0.1,0.03c0.03,0.02,0.05,0.06,0.06,0.12c0.01,0.06,0.03,0.13,0.03,0.22
				C56.85,42.85,56.86,42.97,56.86,43.11z"/>
		</g>
		<g>
			<path class="st0" d="M62,42.41c0,0.32-0.06,0.61-0.18,0.85c-0.12,0.25-0.29,0.45-0.51,0.62c-0.22,0.17-0.48,0.29-0.78,0.37
				c-0.3,0.08-0.63,0.12-0.98,0.12c-0.21,0-0.41-0.02-0.61-0.05c-0.19-0.03-0.37-0.07-0.52-0.12c-0.15-0.05-0.28-0.1-0.38-0.15
				c-0.1-0.05-0.18-0.1-0.22-0.14c-0.05-0.04-0.08-0.11-0.11-0.21s-0.04-0.24-0.04-0.42c0-0.12,0-0.22,0.01-0.3
				c0.01-0.07,0.02-0.13,0.04-0.18c0.02-0.04,0.04-0.07,0.06-0.09c0.03-0.01,0.06-0.02,0.1-0.02c0.05,0,0.12,0.03,0.21,0.08
				c0.09,0.05,0.2,0.11,0.34,0.17c0.14,0.06,0.29,0.12,0.47,0.18c0.18,0.06,0.38,0.08,0.61,0.08c0.14,0,0.27-0.01,0.38-0.04
				c0.11-0.03,0.21-0.07,0.29-0.13c0.08-0.05,0.14-0.12,0.19-0.21c0.04-0.08,0.06-0.18,0.06-0.29c0-0.13-0.04-0.24-0.12-0.33
				c-0.08-0.09-0.18-0.17-0.31-0.24c-0.13-0.07-0.28-0.13-0.44-0.19c-0.16-0.06-0.33-0.12-0.5-0.2c-0.17-0.07-0.34-0.15-0.5-0.25
				c-0.16-0.09-0.31-0.21-0.44-0.34c-0.13-0.14-0.23-0.3-0.31-0.49c-0.08-0.19-0.12-0.42-0.12-0.69c0-0.27,0.05-0.52,0.16-0.75
				c0.11-0.23,0.26-0.42,0.46-0.58c0.2-0.16,0.44-0.29,0.73-0.37c0.29-0.09,0.61-0.13,0.96-0.13c0.18,0,0.35,0.01,0.52,0.04
				c0.17,0.03,0.32,0.06,0.45,0.1c0.14,0.04,0.25,0.08,0.34,0.12c0.09,0.04,0.16,0.08,0.2,0.11c0.04,0.03,0.07,0.06,0.09,0.1
				c0.02,0.03,0.03,0.07,0.04,0.11c0.01,0.04,0.02,0.1,0.02,0.17c0.01,0.07,0.01,0.15,0.01,0.24c0,0.11,0,0.21-0.01,0.28
				c-0.01,0.07-0.02,0.13-0.03,0.17c-0.01,0.04-0.03,0.07-0.06,0.09c-0.03,0.01-0.06,0.02-0.09,0.02c-0.04,0-0.1-0.02-0.18-0.07
				c-0.08-0.04-0.18-0.09-0.3-0.14c-0.12-0.05-0.26-0.1-0.42-0.14c-0.16-0.04-0.34-0.07-0.54-0.07c-0.14,0-0.27,0.01-0.37,0.04
				c-0.11,0.03-0.19,0.07-0.26,0.13c-0.07,0.06-0.12,0.12-0.15,0.19c-0.03,0.07-0.05,0.15-0.05,0.24c0,0.13,0.04,0.24,0.12,0.33
				c0.08,0.09,0.19,0.17,0.32,0.23c0.13,0.07,0.28,0.13,0.45,0.19c0.17,0.06,0.34,0.12,0.51,0.19c0.17,0.07,0.34,0.15,0.51,0.24
				c0.17,0.09,0.32,0.21,0.45,0.34c0.13,0.14,0.24,0.3,0.32,0.49C61.96,41.93,62,42.15,62,42.41z"/>
		</g>
	</g>
</g>
</svg>
